<?xml version="1.0" standalone="no"?>
<!DOCTYPE svg PUBLIC "-//W3C//DTD SVG 20010904//EN"
 "http://www.w3.org/TR/2001/REC-SVG-20010904/DTD/svg10.dtd">
<svg version="1.0" xmlns="http://www.w3.org/2000/svg"
 width="512.000000pt" height="512.000000pt" viewBox="0 0 512.000000 512.000000"
 preserveAspectRatio="xMidYMid meet">
<metadata>
Created by potrace 1.16, written by Peter Selinger 2001-2019
</metadata>
<g transform="translate(0.000000,512.000000) scale(0.100000,-0.100000)"
fill="#000000" stroke="none">
<path d="M75 5065 c46 -77 59 -139 52 -250 l-6 -92 39 -38 c33 -32 40 -46 40
-76 0 -45 -32 -76 -59 -57 -9 6 -4 -1 12 -15 62 -58 144 -48 228 29 52 48 64
54 101 54 59 0 99 -27 149 -102 58 -88 115 -145 173 -175 l49 -25 -49 48 c-53
52 -62 73 -83 202 -19 117 -68 162 -180 162 -106 0 -123 17 -146 147 -19 109
-45 160 -113 216 -32 26 -39 27 -137 27 l-104 0 34 -55z"/>
<path d="M326 5101 c45 -28 71 -65 84 -124 17 -71 50 -120 112 -161 28 -20 53
-34 55 -33 1 2 -2 19 -8 39 -5 20 -8 72 -7 115 3 67 -1 88 -21 131 l-24 52
-111 0 -111 0 31 -19z"/>
<path d="M1180 5099 c-36 -11 -119 -24 -185 -30 -208 -17 -266 -28 -311 -54
-121 -71 -110 -165 28 -240 l53 -29 -37 42 c-42 46 -46 70 -22 110 26 45 63
66 124 70 42 2 62 -2 88 -17 38 -25 68 -70 77 -120 4 -20 11 -41 17 -48 13
-16 173 -68 288 -93 52 -12 99 -25 104 -30 10 -10 -106 -201 -193 -318 -31
-42 -96 -118 -144 -168 -81 -86 -88 -96 -98 -150 -15 -86 -30 -90 -23 -8 17
223 63 419 129 558 18 39 31 74 29 78 -3 4 -16 8 -29 8 -20 0 -30 -11 -54 -57
-66 -133 -111 -301 -131 -498 -7 -60 -18 -137 -26 -170 -28 -121 -10 -206 50
-230 17 -7 87 -20 156 -29 69 -8 226 -34 350 -56 124 -22 229 -40 234 -40 5 0
2 -7 -5 -17 -8 -9 -14 -39 -15 -67 0 -28 -1 -80 -2 -116 l-2 -65 -106 -55
c-92 -47 -116 -55 -175 -58 -117 -7 -199 51 -199 141 0 21 5 48 11 60 11 21
10 21 -6 5 -23 -21 -31 -104 -16 -151 7 -20 31 -52 53 -73 l41 -37 -48 6 c-39
4 -55 12 -77 36 -33 37 -37 24 -6 -23 43 -65 111 -96 210 -96 35 0 58 -4 58
-11 0 -20 -175 -184 -226 -211 -67 -36 -154 -58 -229 -58 -58 0 -63 2 -100 41
-70 73 -113 99 -162 99 -58 0 -102 -22 -132 -65 -76 -112 -4 -265 143 -306 25
-7 28 -6 16 4 -101 79 -33 197 113 197 30 0 47 -10 98 -55 34 -31 83 -65 108
-77 l46 -21 -32 -35 c-94 -102 -94 -218 0 -319 22 -24 38 -43 36 -43 -28 0
-223 93 -309 147 -83 53 -110 82 -110 118 0 38 -35 75 -71 75 -13 0 -35 7 -48
16 -15 11 -33 14 -53 10 -41 -8 -85 28 -181 147 -103 128 -152 204 -219 337
-45 89 -58 108 -58 85 1 -56 159 -325 266 -452 24 -28 44 -53 44 -56 0 -3 -14
-10 -31 -16 -22 -8 -37 -8 -52 0 -30 16 36 -55 86 -92 l38 -28 -28 -15 -29
-15 -71 82 c-92 105 -100 116 -167 216 l-56 84 0 -87 c0 -80 3 -92 36 -159 20
-39 45 -84 55 -99 11 -14 19 -28 19 -31 0 -3 -20 -12 -45 -20 -41 -14 -46 -14
-55 1 -13 24 -13 -124 1 -204 11 -65 34 -110 162 -316 36 -60 62 -108 56 -108
-24 0 -137 132 -181 210 -42 75 -48 81 -48 54 0 -39 88 -176 179 -279 73 -83
126 -155 113 -155 -6 0 -44 -25 -87 -55 -42 -30 -80 -55 -85 -55 -4 0 -11 8
-14 17 -5 12 6 29 38 59 51 46 59 79 26 109 -15 14 -29 16 -62 11 -23 -4 -48
-12 -55 -18 -18 -14 -19 -12 -36 52 l-15 55 -1 -72 c-1 -63 1 -72 19 -78 10
-3 33 1 50 10 67 35 117 -4 60 -46 -42 -30 -76 -34 -97 -10 -9 12 -22 21 -27
21 -5 0 1 -12 15 -26 23 -26 24 -27 2 -22 -21 6 -21 3 -22 -93 l0 -98 77 33
c42 18 95 50 117 70 67 63 324 174 440 191 35 5 44 2 74 -26 20 -18 30 -34 24
-40 -8 -8 -387 -143 -438 -156 -36 -9 47 39 170 98 66 32 114 58 107 58 -8 1
-78 -26 -158 -59 -79 -33 -149 -60 -155 -60 -22 0 -65 -30 -78 -54 -9 -15 -46
-41 -97 -68 l-84 -43 0 -259 c0 -242 1 -258 18 -251 9 5 44 10 77 12 46 4 64
1 73 -10 15 -18 25 -276 12 -297 -8 -13 -11 -13 -25 1 -8 8 -25 37 -36 65
l-20 49 6 -60 c6 -59 61 -240 89 -293 14 -25 15 -23 9 39 -9 100 11 148 112
265 47 54 85 103 85 110 0 6 -7 18 -16 25 -14 11 -23 5 -69 -46 -43 -49 -56
-58 -66 -47 -18 17 -5 49 65 149 55 80 57 82 84 71 50 -21 72 -49 72 -88 0
-21 -23 -113 -51 -205 -28 -93 -53 -190 -56 -216 l-6 -48 79 -84 c52 -55 94
-112 122 -165 l43 -82 194 0 194 0 -15 35 c-7 19 -14 42 -14 50 0 29 17 6 30
-40 7 -25 17 -45 21 -45 12 0 12 2 -11 55 -11 26 -20 50 -20 54 0 11 78 52 83
44 2 -5 12 -41 22 -80 11 -40 23 -73 27 -73 8 0 6 18 -13 90 -5 19 -9 46 -9
59 0 23 1 23 19 7 18 -17 20 -16 26 5 6 18 12 6 32 -61 26 -90 30 -100 43
-100 4 0 -7 50 -26 112 -31 104 -32 112 -16 124 9 8 20 14 23 14 6 0 74 -140
103 -212 15 -37 16 -38 68 -38 l53 0 -95 192 c-166 336 -271 629 -256 711 13
67 59 106 253 213 103 57 112 60 99 36 -19 -37 -57 -70 -147 -130 -42 -28 -88
-65 -104 -83 -24 -29 -27 -39 -22 -80 3 -26 22 -91 42 -145 40 -107 233 -510
241 -502 2 3 -36 90 -85 194 -64 134 -87 192 -80 201 15 17 104 73 117 73 26
0 10 -36 -25 -55 -56 -31 -60 -44 -34 -106 94 -218 145 -353 132 -344 -5 3 11
-31 36 -75 25 -44 47 -80 49 -80 2 0 -6 24 -18 53 -12 28 -32 90 -45 137 -14
47 -45 151 -70 232 -25 80 -43 154 -40 163 10 25 24 10 31 -36 4 -23 20 -76
36 -117 16 -41 53 -160 82 -263 l53 -189 72 0 72 0 -39 108 c-21 59 -50 138
-65 176 -14 38 -24 70 -22 72 2 2 42 -77 89 -176 l86 -180 96 0 c53 0 96 2 96
4 0 2 -11 23 -24 47 -14 24 -36 69 -50 100 l-25 57 54 -2 54 -1 22 -47 22 -48
-26 -21 c-30 -22 -33 -45 -13 -71 11 -15 29 -18 95 -18 70 0 81 2 81 18 1 16
1 16 11 0 9 -16 27 -18 149 -18 l139 0 143 110 c79 61 167 139 196 173 45 52
287 407 361 530 14 22 30 37 42 37 22 0 39 32 21 38 -21 7 -13 25 33 85 28 35
53 57 65 57 27 0 26 -30 -1 -37 -20 -6 -21 -15 -5 -54 5 -12 -1 -19 -23 -27
l-31 -11 21 -36 c36 -60 16 -92 -64 -110 l-28 -6 21 -29 c12 -17 20 -40 18
-53 -3 -20 -8 -22 -55 -20 -29 1 -53 -1 -53 -6 0 -4 11 -18 25 -31 34 -32 31
-54 -13 -102 -34 -36 -45 -41 -93 -46 l-54 -5 25 29 25 28 -25 -16 c-44 -28
-32 -50 37 -71 56 -17 62 -21 53 -37 -6 -11 -25 -31 -44 -45 -28 -21 -44 -25
-102 -25 -44 -1 -78 -6 -94 -16 l-25 -15 30 6 c109 23 114 19 66 -56 -38 -61
-79 -92 -111 -85 -75 17 -76 17 -42 1 54 -25 44 -53 -38 -104 -38 -24 -70 -46
-70 -48 0 -1 64 -3 143 -3 133 1 140 2 114 16 l-28 15 20 32 c10 18 24 57 30
89 13 59 29 75 118 122 l33 16 -36 -77 c-34 -73 -84 -198 -84 -208 0 -3 78 -5
173 -5 l173 0 35 38 c20 20 48 53 63 72 16 19 38 39 50 45 13 7 21 20 21 37 0
14 3 30 8 34 4 4 7 0 7 -9 0 -17 34 -24 44 -9 7 12 -7 29 -27 33 -15 3 -9 18
39 92 31 48 61 87 66 87 24 0 148 -77 158 -98 12 -28 13 -26 -79 -135 -72 -83
-75 -86 -94 -70 -18 17 -18 16 -11 -11 5 -23 1 -34 -32 -67 l-38 -39 240 0
240 0 63 150 c35 83 69 150 75 150 6 0 28 -11 48 -25 27 -18 35 -30 31 -45 -3
-11 -12 -20 -19 -20 -20 0 -17 17 4 29 14 9 15 10 1 11 -9 0 -24 -9 -35 -21
-16 -17 -16 -22 -4 -29 34 -22 92 2 75 30 -4 6 4 5 20 -2 24 -11 26 -16 21
-46 -3 -19 -19 -63 -36 -99 -16 -36 -30 -69 -30 -74 0 -5 45 -9 100 -9 l100 0
26 43 c15 23 28 44 30 45 4 5 133 -68 140 -79 3 -5 56 -9 117 -9 l112 1 92
137 c50 75 114 165 142 200 37 44 51 71 51 93 l0 31 -27 -34 c-47 -58 -107
-118 -118 -118 -11 0 -115 301 -115 333 0 21 11 47 19 47 5 0 13 -19 20 -42
15 -49 92 -228 98 -228 3 0 14 10 24 23 33 36 59 99 59 142 0 22 9 55 20 73
17 28 20 50 20 155 l-1 122 -105 80 c-105 80 -201 171 -190 182 7 7 81 -36
193 -113 95 -66 103 -71 103 -54 0 9 -183 133 -283 192 -25 15 -53 41 -62 57
l-15 31 27 -12 c36 -16 202 -111 272 -155 29 -19 56 -32 59 -29 3 3 3 8 1 10
-10 11 -201 123 -285 168 -63 33 -94 56 -98 70 -3 12 -4 24 -2 25 6 6 279
-141 364 -195 13 -8 22 -10 22 -4 0 12 -226 143 -332 192 -44 21 -68 38 -72
53 -3 11 -4 22 -2 24 11 12 294 -130 379 -189 l27 -19 0 50 0 50 -247 129
c-137 72 -279 146 -318 166 -38 20 -59 34 -45 31 14 -4 153 -70 310 -148 157
-78 288 -143 293 -145 4 -2 7 33 7 77 l0 81 -90 45 c-51 26 -90 51 -90 60 0 8
31 32 69 54 97 57 105 76 109 264 l4 147 -220 -110 c-121 -60 -223 -110 -227
-110 -23 0 31 31 225 126 l219 109 1 38 c0 20 -4 37 -8 37 -4 0 -61 -18 -127
-40 -65 -22 -141 -42 -169 -45 l-51 -6 38 21 c51 28 205 78 267 86 47 6 50 8
50 35 0 34 -2 34 -134 -8 -85 -26 -147 -55 -237 -109 -75 -45 -82 -43 -23 6
59 49 203 121 299 150 39 12 76 23 83 25 6 3 12 16 12 30 0 22 -3 25 -27 19
-100 -21 -190 -56 -348 -134 -184 -91 -265 -119 -345 -121 l-45 -1 35 -15 c47
-21 332 -30 465 -14 54 6 100 10 102 7 8 -8 -134 -68 -207 -88 -170 -45 -349
12 -525 167 l-40 35 38 -15 c49 -20 141 -29 211 -21 58 8 78 26 28 26 -37 0
-122 26 -147 44 -13 10 6 6 50 -9 83 -29 103 -31 101 -9 -1 11 12 21 39 29
l40 13 -37 1 c-21 1 -38 2 -38 4 0 1 14 43 31 92 16 50 33 98 36 109 5 15 13
17 45 13 22 -3 42 -8 45 -11 3 -3 -6 -54 -21 -113 -42 -171 -40 -161 -23 -140
8 10 30 72 48 138 31 115 33 119 59 119 24 0 27 -3 23 -27 -3 -27 -3 -27 14 5
l17 32 76 -6 c75 -6 78 -6 110 23 27 24 35 40 39 79 l6 49 48 -44 c53 -49 77
-87 88 -141 6 -30 7 -27 8 24 1 49 -3 65 -26 95 l-26 36 27 -25 28 -25 -4 30
c-2 22 -21 45 -83 97 -44 37 -89 68 -99 68 -14 0 -11 -6 14 -22 19 -13 35 -29
38 -36 3 -11 -31 1 -107 38 -29 13 -21 28 20 38 52 13 83 2 163 -58 l56 -41 0
35 c0 29 -5 38 -30 51 -17 9 -30 23 -30 35 0 26 15 33 40 20 20 -11 21 -9 18
31 -3 41 -5 44 -55 64 -28 11 -54 23 -57 26 -3 3 20 97 51 210 66 238 85 363
28 184 -19 -60 -51 -168 -71 -240 -19 -71 -39 -134 -44 -139 -5 -5 -30 -3 -59
4 -68 16 -69 41 -4 72 26 13 54 35 62 49 18 33 7 94 -22 123 l-22 21 33 115
c19 63 55 198 81 300 39 150 51 185 64 184 10 -1 17 6 17 16 0 14 -12 21 -50
29 -28 6 -66 11 -85 11 -30 0 -35 -3 -33 -22 1 -13 -9 -54 -20 -92 -30 -93
-27 -107 5 -21 36 101 63 124 106 93 15 -12 13 -28 -32 -203 -44 -173 -75
-283 -102 -372 -8 -26 -16 -33 -35 -33 -36 0 -62 -16 -79 -50 -27 -51 -16
-107 27 -141 14 -11 18 -22 14 -37 -6 -19 -12 -20 -79 -15 -40 3 -73 7 -75 8
-2 2 34 124 79 271 105 347 174 585 188 656 l12 56 57 -14 c31 -7 67 -16 80
-20 18 -5 22 -2 22 14 0 17 -11 25 -52 37 -29 9 -72 18 -95 22 -28 4 -43 11
-43 20 0 8 12 62 28 120 l27 105 45 -6 c25 -3 55 -8 68 -12 12 -3 22 -2 22 3
0 11 -123 43 -163 43 -55 0 -74 -16 -86 -70 -14 -66 -14 -82 2 -104 11 -15 12
-12 9 22 -5 50 14 118 35 126 9 4 17 5 19 4 6 -6 -36 -192 -45 -201 -16 -16
-60 8 -71 38 -18 48 26 189 63 202 34 11 137 5 190 -11 47 -14 47 -14 47 10 0
32 -48 45 -180 50 -76 3 -105 7 -105 16 0 20 142 22 213 3 70 -18 72 -18 72
-5 0 5 -18 15 -40 21 -22 7 -40 16 -40 20 0 5 18 19 40 31 39 22 40 25 40 76
0 47 -2 52 -22 52 -55 0 -127 -81 -128 -142 0 -14 -8 -18 -35 -18 -35 0 -35 1
-35 43 0 87 81 196 159 213 54 12 61 16 61 36 0 18 -4 19 -42 13 -116 -19
-203 -114 -224 -242 -4 -29 -15 -47 -35 -62 -29 -22 -37 -53 -20 -80 12 -18
-21 -114 -55 -158 -47 -62 -124 -82 -159 -43 -12 13 -29 20 -44 18 -57 -7 -23
-88 37 -88 24 -1 25 -2 10 -14 -10 -7 -56 -23 -103 -36 -89 -24 -125 -50 -125
-92 0 -31 25 -82 60 -122 31 -35 33 -40 22 -70 -27 -74 -3 -123 76 -152 67
-25 98 -57 148 -156 l44 -87 -56 -188 c-94 -320 -105 -356 -130 -434 l-25 -76
-157 -6 c-163 -6 -244 2 -272 28 -14 12 -40 94 -40 124 0 9 220 -31 276 -49
18 -6 45 -21 60 -33 l28 -21 -19 31 c-23 40 -51 60 -193 144 l-113 67 50 12
c68 16 138 64 172 119 32 50 40 83 9 37 -25 -39 -84 -74 -136 -82 -58 -8 -148
12 -185 43 -50 43 -112 141 -105 168 9 35 -1 51 -54 89 l-49 35 0 63 c-1 84
-1 105 3 161 3 45 6 50 51 78 50 32 169 149 480 470 99 103 215 219 259 258
57 52 80 80 85 104 8 40 36 44 36 5 -1 -32 3 -34 29 -15 36 26 16 97 -27 97
-19 0 -19 1 -4 18 27 29 47 88 47 137 0 44 1 45 33 45 64 0 111 21 159 70 38
40 48 57 53 97 11 84 26 117 73 166 l46 47 -34 0 c-19 0 -54 -7 -77 -16 -40
-16 -47 -16 -100 -1 -76 22 -92 8 -41 -36 44 -39 58 -65 58 -111 0 -43 -38
-91 -83 -104 -18 -6 -60 -13 -95 -17 -74 -7 -131 -26 -174 -57 l-31 -22 -36
45 c-71 90 -181 189 -278 253 l-101 66 -88 -1 -89 -1 83 -39 c107 -50 231
-131 306 -200 75 -68 150 -182 166 -251 19 -82 38 -121 72 -149 l31 -26 -44
-39 c-53 -47 -228 -212 -479 -450 -164 -156 -285 -254 -311 -254 -5 0 31 42
79 93 49 50 138 148 198 217 59 69 178 197 262 284 85 88 159 169 164 182 18
40 1 68 -104 170 -174 168 -336 277 -493 329 -67 23 -85 25 -115 16 -48 -14
-70 -40 -184 -209 -82 -123 -203 -282 -213 -282 -7 0 16 36 60 97 25 33 56 78
70 100 33 53 129 263 125 275 -2 5 -34 -49 -71 -121 -116 -223 -122 -229 -386
-400 -68 -43 -68 -55 0 -20 51 25 63 18 18 -11 -63 -38 -138 -55 -244 -55
-147 1 -158 7 -337 208 -73 80 -90 107 -104 154 -35 122 -87 187 -175 218
-122 43 -240 -7 -476 -202 -125 -104 -244 -227 -408 -423 -159 -191 -238 -270
-298 -299 -66 -32 -79 -21 -20 16 42 25 153 142 153 159 0 3 -14 -6 -32 -21
-17 -14 -63 -42 -102 -62 l-71 -35 68 62 c89 81 173 191 288 375 70 113 114
171 179 236 135 135 300 241 499 320 l96 38 -91 1 -90 0 -116 -69 c-157 -93
-267 -177 -365 -278 l-81 -85 -54 20 c-29 10 -86 27 -125 37 l-73 17 29 35
c47 56 166 140 284 199 60 31 111 54 112 52 2 -2 -33 -25 -78 -52 -104 -62
-190 -128 -222 -170 -53 -69 -19 -76 61 -11 72 59 124 85 185 92 27 3 49 10
49 14 0 5 -4 9 -10 9 -5 0 -14 9 -20 20 -9 17 -6 23 22 40 18 11 75 36 126 56
51 20 103 45 115 55 21 18 15 18 -283 18 -268 -1 -313 -4 -370 -20z m1201
-303 c6 -22 17 -57 24 -76 7 -19 16 -60 20 -90 3 -30 11 -71 16 -90 9 -36 55
-88 96 -109 13 -6 25 -24 28 -39 4 -15 13 -42 21 -61 8 -18 13 -36 10 -38 -5
-5 -66 96 -66 109 0 4 -10 10 -22 14 -15 4 -25 1 -35 -12 -12 -17 -14 -17 -28
2 -22 29 -43 110 -50 199 -5 61 -12 85 -28 103 -16 17 -22 39 -25 90 -4 61 -3
65 12 53 9 -7 21 -32 27 -55z m1255 -143 c-9 -137 -28 -235 -60 -315 -26 -65
-26 -65 27 7 28 38 26 10 -5 -54 -37 -78 -148 -193 -229 -239 -31 -18 -60 -32
-63 -32 -4 0 22 25 58 55 69 59 129 147 152 222 16 54 13 60 -20 45 -23 -10
-22 -7 18 77 23 49 60 145 81 215 22 69 42 126 44 126 2 0 1 -48 -3 -107z
m1033 3 c-7 -17 -26 -48 -42 -68 -38 -50 -71 -51 -94 -3 -20 42 -16 48 77 116
l65 48 3 -30 c2 -17 -2 -45 -9 -63z m-2603 -121 c75 -49 59 -171 -28 -216 -55
-28 -81 -25 -37 5 73 50 94 129 42 163 -87 57 -247 -26 -514 -267 l-84 -75 64
78 c209 254 444 386 557 312z m1243 -17 c-15 -27 -111 -130 -116 -124 -7 7 65
112 89 129 32 22 41 21 27 -5z m1749 -83 c-20 -14 -41 -25 -45 -25 -14 1 52
50 67 50 8 0 -2 -11 -22 -25z m-2481 -167 c24 -25 25 -28 7 -28 -27 0 -41 11
-53 43 -8 21 -15 25 -30 19 -28 -10 -30 -26 -3 -30 12 -2 20 -8 16 -13 -7 -12
16 -31 64 -54 17 -9 32 -20 32 -25 0 -16 -31 -11 -67 11 -22 14 -42 19 -58 15
-27 -7 -32 3 -13 22 9 9 9 15 0 24 -18 18 -15 43 8 63 13 11 20 31 21 54 l0
36 25 -55 c14 -30 37 -67 51 -82z m309 9 l73 -11 13 -41 c11 -34 18 -40 44
-43 42 -4 87 46 82 92 l-3 31 -60 -3 c-74 -4 -67 6 17 23 73 16 88 9 88 -41 0
-57 -110 -155 -154 -138 -12 5 -16 0 -16 -20 0 -15 -10 -37 -24 -49 -13 -12
-27 -33 -31 -46 -5 -16 -10 -20 -15 -11 -5 9 -13 6 -30 -12 -21 -22 -22 -22
-16 -2 5 17 2 20 -16 19 -13 -1 -24 -9 -26 -18 -2 -9 -7 -17 -12 -17 -4 0 -6
9 -3 20 7 28 -13 25 -22 -2 -7 -21 -8 -20 -12 9 -3 22 -8 30 -18 27 -19 -8
-37 32 -30 67 6 26 4 29 -18 29 -38 0 -57 25 -57 76 0 30 8 57 25 84 l24 39
62 -25 c33 -14 94 -30 135 -37z m414 3 c0 -37 -20 -67 -35 -52 -4 4 0 -8 10
-27 33 -65 -13 -148 -77 -138 -18 2 -43 1 -55 -4 -14 -5 -23 -5 -23 1 0 16 42
32 70 27 34 -7 63 13 58 39 -4 22 -49 27 -56 5 -3 -9 1 -11 16 -7 11 4 23 2
27 -4 9 -15 -23 -24 -39 -10 -11 8 -20 8 -35 1 -27 -15 -69 -13 -106 4 -29 13
-28 13 36 14 53 1 74 6 102 25 24 16 43 23 59 19 21 -6 22 -5 9 10 -17 21 -50
22 -79 1 -47 -32 -33 -3 23 51 32 30 55 58 52 61 -3 4 -28 -6 -54 -21 l-48
-28 25 27 c14 16 41 36 60 46 44 23 60 12 60 -40z m-1200 -24 c-6 -8 -33 -22
-59 -31 -66 -22 -90 -41 -111 -90 -23 -53 -68 -96 -145 -140 -100 -56 -104
-51 -22 25 70 65 78 77 73 101 -12 60 77 122 199 138 39 4 72 9 74 10 2 0 -2
-6 -9 -13z m343 -45 c-3 -14 3 -21 24 -28 28 -10 28 -10 5 -17 -36 -12 -71 32
-45 57 13 13 21 7 16 -12z m177 -75 c0 -13 -72 -46 -99 -46 -36 0 -41 -14 -8
-25 19 -6 20 -8 4 -12 -29 -8 -49 5 -45 29 2 18 12 24 43 29 22 4 51 12 65 18
28 11 40 13 40 7z m30 -30 c0 -2 -18 -15 -40 -30 -28 -19 -40 -33 -40 -50 0
-24 -23 -56 -40 -56 -5 0 -16 7 -25 16 -13 13 -13 19 -3 32 12 13 13 13 16 -6
2 -12 9 -22 16 -22 22 0 26 13 8 26 -16 12 -15 14 8 39 28 30 100 67 100 51z
m454 -57 c10 -15 21 -20 35 -16 15 4 21 0 21 -11 -1 -25 -57 -82 -80 -82 -24
0 -27 20 -2 20 23 1 52 24 52 41 0 8 -8 4 -20 -11 l-20 -25 0 27 c0 18 -13 39
-40 64 -22 21 -40 42 -40 46 0 14 78 -30 94 -53z m1662 -56 c10 -27 33 -58 62
-83 l47 -40 -56 0 c-69 0 -172 -30 -218 -64 -34 -25 -51 -26 -51 -3 0 7 -16
36 -35 66 -19 29 -35 54 -35 56 0 2 51 28 113 58 61 30 121 62 132 70 18 14
20 14 23 -1 2 -9 10 -36 18 -59z m-1315 1 c-28 -78 -66 -130 -118 -161 -56
-33 -158 -48 -248 -37 -43 5 -58 9 -40 11 70 8 183 37 225 58 49 25 102 74
158 147 20 26 37 46 39 44 2 -2 -5 -30 -16 -62z m-731 31 c0 -8 -4 -15 -10
-15 -5 0 -10 7 -10 15 0 8 5 15 10 15 6 0 10 -7 10 -15z m17 -67 c-4 -23 -4
-23 -14 2 -7 17 -7 30 1 43 10 17 11 17 14 -3 2 -11 2 -30 -1 -42z m133 3
c-12 -17 -24 -31 -26 -31 -11 0 10 45 25 57 25 18 25 7 1 -26z m-90 -11 c0
-31 -16 -41 -26 -15 -8 19 2 45 16 45 5 0 10 -13 10 -30z m50 6 c0 -26 -24
-53 -34 -37 -8 13 11 61 24 61 5 0 10 -11 10 -24z m-1652 -89 c220 -9 246 -19
112 -40 -171 -27 -271 -39 -286 -33 -17 7 -18 46 -1 100 12 41 12 41 15 10 l3
-31 157 -6z m3346 -144 c-19 -25 -34 -52 -35 -61 0 -10 -3 -12 -5 -5 -3 7 4
33 15 59 l21 46 -50 55 c-52 57 -62 86 -33 102 15 8 26 -4 69 -71 l52 -81 -34
-44z m-2234 98 c34 -5 6 -9 -111 -14 -86 -3 -165 -10 -175 -13 -13 -5 -16 -4
-9 4 26 28 187 41 295 23z m2550 -1 c-8 -5 -22 -10 -31 -10 -43 0 -141 -64
-207 -135 -51 -56 -71 -72 -82 -65 -13 8 -12 14 4 42 70 120 159 177 276 177
39 1 51 -2 40 -9z m0 -78 c0 -23 -28 -62 -44 -62 -20 0 -94 -59 -101 -81 -4
-11 -1 -27 6 -35 20 -24 7 -23 -54 5 l-58 27 35 46 c64 84 216 154 216 100z
m-1359 -39 c79 -37 97 -49 82 -55 -14 -6 -12 -8 8 -5 16 2 26 -1 26 -9 0 -7
-7 -10 -16 -6 -14 5 -14 4 -1 -14 8 -10 1 -7 -15 8 -40 36 -107 65 -218 93
-73 18 -86 24 -62 28 75 11 98 6 196 -40z m-886 10 c25 -8 12 -12 -80 -22 -60
-7 -144 -19 -185 -27 -83 -17 -292 -85 -355 -115 l-40 -20 24 21 c25 21 13 27
-21 9 -11 -6 -22 -9 -24 -6 -3 2 25 19 60 37 36 19 64 35 62 37 -1 2 -51 -11
-111 -27 -59 -17 -109 -29 -112 -27 -6 7 143 66 234 93 184 53 249 63 388 59
72 -2 144 -7 160 -12z m613 -34 c53 -6 130 -22 171 -35 90 -30 123 -48 71 -39
-19 3 -62 8 -95 11 -59 5 -60 5 -30 -11 17 -8 21 -13 10 -10 -45 13 -278 45
-412 56 -78 7 -141 14 -139 16 8 8 137 21 229 22 54 0 141 -4 195 -10z m-253
-109 c225 -40 346 -71 433 -111 47 -22 91 -44 97 -49 7 -6 8 -32 3 -77 -4 -37
-7 -99 -7 -136 0 -81 -19 -122 -53 -111 -19 6 -18 3 6 -29 35 -46 43 -96 23
-150 -9 -23 -21 -72 -26 -108 -8 -57 -24 -109 -34 -109 -2 0 -1 29 1 64 2 35
-1 72 -7 82 -9 16 -10 13 -11 -21 -1 -90 -77 -161 -183 -172 -69 -7 -108 13
-210 105 -42 38 -90 75 -107 82 -29 12 -33 11 -60 -15 -39 -37 -74 -120 -64
-154 6 -24 8 -22 20 23 25 95 88 125 111 53 16 -49 3 -84 -34 -93 -15 -3 -49
-28 -74 -54 -76 -81 -122 -79 -206 6 -30 29 -62 55 -71 55 -9 1 -26 2 -37 3
-32 2 -33 66 -2 101 31 36 52 29 77 -27 15 -32 20 -37 20 -20 0 32 -23 84 -49
107 -21 18 -23 18 -54 2 -18 -10 -66 -45 -107 -78 -78 -63 -180 -119 -216
-119 -74 0 -141 49 -186 137 -53 102 -72 200 -65 349 5 133 19 186 31 116 4
-31 16 -49 48 -76 23 -20 48 -36 55 -36 7 0 13 -4 13 -10 0 -21 -86 -2 -102
23 -12 20 -20 0 -9 -22 12 -22 67 -37 105 -27 52 13 34 -14 -29 -45 -82 -39
-86 -57 -5 -22 l60 26 63 -24 c53 -20 80 -24 184 -24 128 0 144 -8 53 -25 -62
-12 -152 -4 -192 16 -49 25 -112 13 -137 -28 -7 -11 -9 -18 -4 -16 65 32 90
39 112 32 36 -13 37 -31 2 -39 -30 -6 -91 -65 -91 -88 0 -7 11 2 25 19 27 35
89 64 135 64 44 0 44 -15 0 -45 -49 -34 -46 -43 7 -17 21 11 49 23 63 27 14 4
69 27 123 51 53 24 99 44 102 44 3 0 5 -10 5 -22 0 -44 17 -52 23 -11 4 21 13
47 22 58 15 20 15 20 35 -5 21 -27 26 -17 10 24 -5 14 -6 28 -1 30 4 3 17 -34
27 -82 18 -84 21 -166 10 -262 -5 -39 -4 -42 5 -20 26 58 22 273 -7 373 -7 22
45 46 83 39 41 -8 48 -40 28 -127 -9 -42 -14 -79 -11 -82 3 -4 6 0 6 8 0 23
43 119 53 119 5 0 7 -12 4 -27 -3 -16 -8 -46 -12 -68 l-6 -40 27 43 c14 23 32
42 38 42 7 0 20 -15 29 -32 l16 -33 0 33 c1 17 3 32 5 32 2 0 29 -11 59 -25
30 -14 88 -33 128 -41 39 -8 81 -20 91 -25 11 -6 22 -8 25 -6 2 3 -17 18 -43
33 l-47 28 74 24 c52 16 87 22 119 18 43 -5 44 -5 20 9 -34 20 -57 18 -126 -6
-45 -16 -73 -19 -122 -15 -100 9 -99 21 1 21 77 0 100 4 142 24 28 14 54 27
59 29 5 3 6 -3 3 -12 -5 -14 -3 -15 13 -6 31 16 65 12 104 -15 20 -13 36 -21
36 -17 0 19 -60 63 -93 69 -42 6 -48 18 -14 27 13 3 40 20 60 38 35 31 39 40
53 125 8 50 14 111 12 135 l-3 43 -11 -34 -10 -35 -18 48 c-25 64 -31 52 -10
-20 19 -67 21 -164 3 -206 -7 -17 -28 -37 -50 -49 -54 -27 -56 -24 -15 21 41
45 41 48 22 94 -21 51 -50 66 -126 66 l-65 0 30 20 c45 30 106 27 146 -7 l32
-28 -7 30 c-13 51 -53 85 -103 85 -39 0 -50 -7 -130 -76 -100 -87 -194 -137
-260 -138 -37 -1 -49 4 -69 27 -43 50 -28 121 45 202 l26 29 -35 -26 c-19 -14
-48 -42 -65 -62 -26 -33 -30 -47 -33 -112 l-4 -74 -34 0 -33 0 6 83 c4 66 2
89 -11 115 -9 18 -18 32 -19 32 -2 0 -3 -24 -3 -53 1 -44 -4 -60 -27 -90 -36
-47 -62 -61 -117 -61 -54 1 -139 41 -255 122 -92 65 -139 84 -172 71 -29 -11
-30 3 -4 64 17 39 26 47 73 65 150 56 269 72 508 68 144 -3 227 -10 315 -26z
m-931 -112 c-4 -6 -15 -49 -24 -95 l-16 -83 43 45 c30 32 51 45 70 45 28 0
241 -122 223 -128 -5 -2 -48 15 -96 37 -94 44 -118 48 -167 27 -66 -28 -90
-87 -58 -142 22 -37 17 -43 -15 -16 -36 28 -45 58 -51 165 l-5 102 43 27 c48
29 64 34 53 16z m1560 -29 c-5 -9 -44 11 -44 23 0 4 11 3 25 -4 13 -6 22 -15
19 -19z m-1756 -120 c-32 -57 -95 -127 -130 -145 -17 -9 -52 -22 -78 -30 -61
-18 -104 -65 -161 -175 -42 -81 -95 -146 -138 -169 -20 -10 -20 -8 5 62 15 40
33 87 42 103 55 110 150 187 258 210 68 14 125 49 145 88 11 20 9 20 -17 -4
-44 -40 -66 -49 -155 -60 -45 -5 -104 -19 -133 -29 -39 -15 -46 -16 -31 -4 40
31 98 55 178 75 89 22 163 58 198 95 34 37 42 29 17 -17z m1953 -56 c67 -44
50 -52 -33 -14 -44 20 -98 53 -121 73 l-42 38 80 -36 c44 -20 96 -48 116 -61z
m-2006 67 c-11 -19 -82 -49 -127 -55 -43 -6 -43 -6 17 18 33 12 69 28 80 35
25 14 38 15 30 2z m2011 -295 c90 -88 90 -93 -1 -33 -60 40 -107 100 -133 170
-36 98 -32 114 7 32 32 -67 55 -97 127 -169z m-12 93 c24 -43 43 -78 41 -78
-6 0 -73 97 -89 128 -9 17 -16 37 -15 44 0 16 5 9 63 -94z m-1014 35 c2 -2 0
-11 -6 -21 -8 -12 -22 -16 -57 -13 -25 1 -55 -2 -66 -8 -11 -6 -22 -7 -25 -2
-6 9 30 45 54 54 15 5 91 -2 100 -10z m1127 -105 c68 -89 119 -136 204 -194
54 -36 37 -38 -31 -4 -108 54 -232 185 -276 290 l-13 31 25 -20 c15 -11 55
-58 91 -103z m-2149 80 c-95 -144 -120 -222 -143 -429 -29 -274 -83 -376 -224
-429 l-49 -19 43 92 c24 51 51 123 60 162 18 80 32 104 75 135 l31 22 -6 -38
c-6 -33 -24 -89 -60 -189 -13 -38 35 27 61 81 17 36 32 101 49 215 34 228 57
293 137 384 34 40 47 46 26 13z m3162 -13 c17 -20 5 -45 -20 -45 -11 0 -23 7
-26 15 -6 15 11 45 26 45 4 0 13 -7 20 -15z m-3286 -17 c-4 -7 -20 -29 -35
-48 -16 -19 -42 -69 -58 -110 -25 -61 -42 -86 -94 -135 -150 -142 -302 -185
-441 -125 -62 26 -67 42 -6 19 98 -37 226 -14 339 62 74 49 95 74 165 193 30
51 71 107 91 124 38 34 51 40 39 20z m170 -57 c-4 -20 4 -60 25 -119 44 -128
39 -179 -11 -111 -25 34 -44 190 -28 230 16 37 21 37 14 0z m1880 -33 c-8 -26
44 -120 85 -153 l36 -29 -25 29 c-14 17 -28 32 -31 35 -10 8 -59 96 -59 105 0
4 13 -11 28 -34 15 -23 52 -59 82 -81 107 -79 120 -91 154 -143 40 -63 101
-118 170 -152 47 -24 59 -25 218 -25 92 0 168 -3 168 -7 0 -26 -87 -276 -97
-280 -15 -6 -82 32 -132 75 l-35 29 85 -4 84 -4 -83 45 c-100 55 -130 76 -200
138 -29 27 -57 48 -62 48 -5 0 0 -17 11 -37 l21 -38 -22 25 c-12 14 -26 25
-30 25 -4 0 -26 20 -49 45 l-40 45 12 -35 c7 -19 43 -66 80 -103 48 -48 62
-67 45 -62 -35 11 -104 52 -146 88 -35 31 -36 31 -15 4 39 -51 93 -85 173
-112 44 -15 82 -30 85 -35 6 -10 -61 7 -95 25 l-26 13 29 -58 c24 -48 30 -76
36 -166 6 -93 12 -118 38 -170 56 -114 118 -173 286 -273 49 -29 86 -55 84
-58 -9 -9 -130 47 -197 92 -107 71 -193 176 -226 278 l-14 42 6 -55 c13 -118
64 -239 177 -414 86 -134 107 -191 107 -291 0 -75 -13 -121 -44 -160 -15 -19
-16 -17 -9 35 13 92 8 194 -12 247 -17 45 -111 213 -120 213 -2 0 17 -40 41
-88 45 -89 74 -176 73 -222 0 -14 -10 6 -23 46 -13 39 -52 128 -88 197 -106
202 -131 286 -149 496 -6 69 -14 141 -19 159 -20 78 20 -3 46 -93 l14 -50 -4
73 c-7 99 -48 186 -127 269 -33 34 -71 87 -85 118 -16 34 -47 76 -81 108 -30
28 -66 70 -79 93 -36 61 -66 155 -60 187 4 17 2 26 -4 22 -6 -4 -10 6 -10 22
l1 28 14 -25 c8 -14 12 -33 9 -42z m-1409 17 c61 -13 59 -19 -5 -15 -37 2
-100 24 -100 36 0 3 10 3 23 -1 12 -4 49 -13 82 -20z m-682 -30 c-9 -19 -18
-33 -21 -31 -4 5 26 66 33 66 3 0 -3 -16 -12 -35z m2324 -161 c-15 -15 -147
120 -147 150 0 3 34 -28 76 -70 42 -41 74 -78 71 -80z m228 125 c15 -6 10 -8
-20 -8 -22 0 -53 6 -70 14 -29 13 -29 13 20 8 28 -3 59 -10 70 -14z m700 -78
l40 -7 -55 -28 c-111 -57 -150 -101 -150 -171 0 -29 -5 -37 -26 -45 -63 -24
-64 -20 -27 108 20 64 39 122 45 129 17 21 100 28 173 14z m-3555 -46 c-21
-56 -42 -85 -69 -100 -48 -24 -129 -29 -200 -11 -94 24 -105 35 -30 29 82 -7
151 12 239 66 36 22 66 40 67 41 1 0 -2 -11 -7 -25z m358 -192 c-3 -49 -13
-104 -22 -123 -9 -19 -13 -25 -11 -13 12 48 25 141 25 181 0 23 3 42 6 42 4 0
4 -39 2 -87z m3214 56 c-24 -20 -82 -49 -82 -41 0 6 16 24 36 42 28 24 39 29
45 18 4 -7 5 -16 1 -19z m-1716 -193 c12 -22 25 -52 29 -66 6 -21 1 -18 -29
17 -57 65 -150 123 -199 123 l-40 0 26 25 c26 27 43 86 31 108 -4 6 31 -28 77
-77 46 -49 94 -107 105 -130z m-1295 171 c10 -38 -21 -78 -45 -58 -20 17 -20
35 0 67 20 30 35 27 45 -9z m1722 1 c17 -23 18 -30 7 -43 -11 -14 -16 -11 -36
22 -13 21 -24 42 -24 46 0 17 34 1 53 -25z m-1113 -80 l21 -17 -28 -6 c-55
-12 -109 -35 -161 -69 -28 -19 -52 -32 -52 -28 0 23 66 115 115 161 l57 54 14
-39 c7 -21 23 -47 34 -56z m1080 27 c0 -5 -5 -3 -10 5 -5 8 -10 20 -10 25 0 6
5 3 10 -5 5 -8 10 -19 10 -25z m-3355 -109 c0 -6 -9 -12 -20 -14 -16 -2 -28
13 -58 75 l-38 78 58 -64 c32 -36 58 -70 58 -75z m1165 -67 c-61 -74 -130
-196 -130 -232 0 -17 -5 -19 -44 -15 -102 12 -186 95 -194 191 -3 46 0 57 27
94 40 56 70 70 187 88 54 9 123 26 154 38 l55 22 3 -57 c3 -57 3 -57 -58 -129z
m2524 32 c31 -59 79 -288 91 -428 7 -87 -2 -107 -23 -49 -7 19 -19 39 -26 45
-11 9 -9 -5 6 -51 16 -50 19 -81 15 -148 -3 -47 -8 -94 -12 -105 -3 -11 3 -4
14 15 30 51 27 10 -4 -49 -14 -29 -52 -74 -94 -111 -38 -33 -77 -76 -86 -93
l-16 -32 5 35 c3 19 22 65 41 103 19 37 51 97 70 135 63 120 56 213 -25 342
-22 36 -54 92 -70 126 -30 64 -65 210 -57 241 3 11 5 7 6 -10 3 -74 80 -245
146 -322 19 -24 17 -17 -10 29 -39 67 -74 166 -110 316 -36 150 -30 165 11 30
19 -63 52 -143 72 -177 20 -34 37 -61 38 -60 1 1 -6 49 -16 107 -10 58 -20
141 -22 185 l-5 80 17 -50 c9 -27 29 -74 44 -104z m1080 117 c8 -23 6 -32 -14
-53 -40 -42 -120 -31 -120 17 0 21 13 23 39 6 25 -15 51 4 51 39 0 34 31 27
44 -9z m-4544 -68 c-23 -15 -33 -12 -73 21 -43 36 -45 42 -14 56 19 10 27 6
62 -28 33 -33 37 -41 25 -49z m1561 -230 c1 -3 5 45 8 105 l6 110 12 -98 c12
-101 37 -162 74 -185 17 -11 19 -9 19 10 0 13 -14 74 -32 135 -26 93 -29 117
-20 138 28 61 72 -1 72 -102 1 -32 9 -80 19 -108 10 -27 30 -81 45 -120 14
-38 26 -83 26 -100 l0 -30 -13 25 c-12 23 -122 109 -141 110 -5 0 14 -24 41
-53 68 -72 93 -123 99 -205 l5 -67 -20 54 c-12 30 -32 72 -46 93 -26 40 -43
52 -25 19 5 -11 10 -23 9 -28 0 -4 -22 35 -49 87 -45 88 -49 92 -50 60 l-1
-35 -13 25 c-31 57 -46 167 -44 317 l2 148 6 -150 c4 -82 9 -152 11 -155z
m2787 277 c6 -30 -17 -47 -65 -47 -46 0 -113 23 -113 38 0 13 78 30 130 29 34
-2 46 -6 48 -20z m-1347 -132 l-9 -40 -1 40 c0 22 3 65 7 95 l7 55 3 -55 c1
-30 -1 -73 -7 -95z m-130 123 c3 -45 -4 -147 -16 -228 -7 -52 -11 -97 -9 -99
8 -8 47 72 86 179 46 124 53 123 46 -5 -3 -51 -11 -85 -31 -125 l-28 -55 36
35 c19 20 47 63 61 95 l25 60 -5 -90 c-2 -49 -10 -112 -18 -140 l-13 -50 -5
40 -6 40 -24 -75 c-21 -63 -35 -84 -89 -140 l-63 -65 16 40 c9 22 30 60 46 85
16 25 38 67 49 93 l21 48 -29 -20 c-76 -54 -125 -137 -152 -259 -5 -26 -17
-72 -26 -102 l-17 -55 -8 40 c-9 47 1 161 12 130 5 -15 10 -9 23 30 19 55 21
92 7 129 -7 20 -4 37 14 78 38 87 49 152 44 259 -4 75 -2 104 9 119 16 22 43
27 44 8z m286 -10 c-3 -8 -6 -5 -6 6 -1 11 2 17 5 13 3 -3 4 -12 1 -19z
m-1336 -35 c-46 -115 -54 -134 -57 -130 -10 10 17 141 32 158 33 37 45 23 25
-28z m-531 -100 c-27 -115 -39 -224 -31 -293 7 -54 7 -53 15 43 5 54 14 120
21 145 12 44 13 41 9 -58 -6 -137 -22 -249 -40 -277 -8 -13 -10 -23 -5 -23 17
0 85 93 123 169 22 43 36 63 33 46 -18 -84 -52 -162 -124 -282 -43 -73 -84
-153 -91 -178 -26 -92 5 -211 70 -270 20 -18 20 -16 -4 32 -54 107 -40 228 38
347 21 31 40 56 42 56 2 0 -17 -39 -43 -87 -41 -76 -47 -95 -51 -162 -4 -67
-1 -86 23 -146 28 -69 57 -121 82 -140 31 -25 43 -117 22 -172 -6 -15 -39 -57
-73 -93 -96 -99 -108 -166 -45 -243 17 -21 33 -36 35 -35 2 2 -4 24 -12 48
-17 48 -12 108 13 150 9 16 12 18 8 5 -28 -85 -17 -137 41 -206 55 -63 69 -85
79 -119 l7 -25 -23 21 c-44 39 -51 37 -20 -6 38 -53 41 -75 4 -36 -14 16 -58
43 -97 61 -124 56 -173 135 -163 260 5 72 33 131 92 194 88 95 87 117 -5 217
-39 42 -80 94 -91 116 -39 76 -44 181 -15 283 4 11 -7 -7 -24 -40 l-30 -60 6
45 c3 25 26 88 51 140 62 131 64 138 73 290 7 130 9 139 53 242 25 59 50 124
54 145 7 34 8 35 11 11 2 -14 -6 -66 -18 -115z m128 88 c-15 -5 -18 3 -11 29
l7 25 6 -25 c3 -14 2 -27 -2 -29z m-1328 26 c0 -28 -279 -231 -287 -209 -3 6
-9 10 -14 6 -5 -3 -9 -2 -8 3 1 11 280 211 297 212 6 1 12 -5 12 -12z m2483
-12 c50 -29 121 -130 138 -196 9 -34 10 -56 2 -80 l-11 -34 -1 40 c-2 55 -24
89 -106 165 -47 44 -63 55 -50 35 18 -30 18 -30 -2 -12 -31 27 -37 20 -14 -19
20 -33 20 -36 4 -30 -10 4 -45 14 -77 21 -63 15 -108 43 -48 30 36 -7 41 1 15
22 -22 17 51 -11 76 -29 9 -7 -9 14 -39 45 -61 64 -57 71 16 26 47 -30 48 -30
25 -5 -14 14 -22 28 -19 31 7 8 122 -79 142 -106 9 -13 16 -18 16 -11 0 7 -27
39 -61 72 -33 33 -58 60 -54 60 3 0 25 -11 48 -25z m-609 -62 c-93 -94 -116
-141 -116 -232 0 -65 0 -65 -15 -38 -8 16 -17 52 -20 81 -10 93 37 163 151
226 39 22 72 40 74 40 1 0 -32 -35 -74 -77z m1204 59 c2 -7 -3 -12 -12 -12 -9
0 -16 7 -16 16 0 17 22 14 28 -4z m-2998 -7 c0 -2 -20 -16 -45 -30 -60 -36
-90 -29 -34 8 38 24 79 36 79 22z m1915 -20 l-30 -25 39 16 c21 8 40 13 42 11
5 -5 -44 -50 -78 -72 -28 -17 -38 -9 -17 12 9 9 7 11 -9 6 -20 -5 -75 -65
-100 -108 -22 -39 -12 7 13 58 35 70 56 96 82 102 13 2 31 8 40 14 36 21 48
11 18 -14z m-2226 -19 c13 -14 20 -29 17 -34 -9 -16 -139 -100 -165 -107 -22
-7 -23 -5 -17 21 4 16 8 30 9 30 1 1 32 17 69 35 43 22 65 38 60 46 -5 8 -29
1 -81 -23 -40 -19 -75 -33 -77 -31 -5 5 138 87 152 87 6 0 21 -11 33 -24z
m1578 12 c4 -7 8 -18 9 -24 1 -6 5 -21 8 -32 5 -15 1 -22 -14 -27 -45 -14 -83
61 -42 84 23 14 29 13 39 -1z m1741 -4 c34 -23 27 -75 -11 -88 -55 -20 -90 41
-48 83 25 25 30 26 59 5z m-2978 -3 c0 -16 -83 -82 -99 -79 -28 6 -20 24 27
55 48 32 72 40 72 24z m1966 -20 c-17 -19 -16 -19 25 -14 53 8 46 -9 -13 -26
-24 -8 -65 -20 -91 -28 -27 -8 -50 -13 -52 -11 -6 6 119 97 134 98 11 0 10 -4
-3 -19z m563 -71 c26 -46 30 -105 12 -169 -17 -60 -25 -44 -11 22 12 51 11 57
-15 115 -15 34 -34 67 -41 73 -23 19 -16 31 9 14 13 -8 33 -33 46 -55z m-2661
4 c7 -21 65 -117 128 -212 63 -94 117 -178 120 -186 3 -9 -7 -15 -33 -20 -33
-5 -41 -3 -63 22 -87 98 -267 308 -279 324 -20 28 1 44 24 18 10 -11 26 -20
36 -20 24 0 55 58 40 73 -15 15 -14 50 2 45 6 -3 18 -22 25 -44z m884 -11
c-16 -32 -39 -84 -51 -115 -13 -32 -27 -58 -32 -58 -5 0 -4 10 1 23 4 12 20
50 33 84 23 57 62 123 73 123 2 0 -9 -26 -24 -57z m-603 -70 c46 -31 125 -74
175 -96 50 -22 93 -42 96 -45 3 -3 -17 -2 -45 2 -94 12 -319 138 -376 210 -32
40 -13 51 29 16 20 -17 75 -56 121 -87z m1960 100 c13 11 23 11 51 1 l35 -12
-45 -12 c-30 -8 -61 -9 -95 -3 l-50 9 30 16 c26 14 32 15 44 3 12 -12 18 -12
30 -2z m-2154 -61 c12 -9 46 -55 76 -102 31 -47 84 -120 119 -163 50 -62 60
-81 49 -88 -37 -23 -57 -6 -148 129 -59 88 -141 224 -141 234 0 13 24 8 45
-10z m1235 -1 c0 -38 -58 -249 -79 -287 -12 -21 -19 -30 -15 -19 8 24 36 141
59 248 9 42 21 77 26 77 5 0 9 -9 9 -19z m1053 -31 c7 -28 -4 -104 -17 -112
-23 -15 -37 14 -30 61 9 65 36 94 47 51z m51 -46 c-12 -62 -34 -71 -34 -14 0
49 17 87 32 72 7 -7 7 -27 2 -58z m-2486 -57 c147 -167 202 -234 202 -246 0
-6 -13 -11 -29 -11 -25 0 -40 13 -99 88 -38 48 -101 124 -140 170 -74 86 -81
97 -59 105 21 7 33 -2 125 -106z m2179 82 c15 -28 17 -85 4 -93 -31 -20 -61
44 -47 100 8 30 26 27 43 -7z m93 11 c15 -15 20 -33 20 -71 l0 -50 -42 3 -43
3 -3 47 c-5 79 26 110 68 68z m90 0 c6 -12 10 -42 8 -68 -3 -43 -5 -47 -28
-47 -21 0 -26 6 -33 40 -15 71 25 127 53 75z m-250 -9 c15 -29 13 -71 -5 -71
-20 0 -38 37 -31 66 8 29 22 31 36 5z m415 -16 c0 -16 -6 -30 -12 -32 -9 -3
-13 7 -13 32 0 25 4 35 13 33 6 -3 12 -17 12 -33z m-2701 -32 c-21 -15 -58
-18 -49 -3 9 15 -2 12 -32 -7 -21 -14 -25 -14 -21 -3 4 13 24 25 98 60 22 11
26 -31 4 -47z m2236 26 c0 -17 -4 -28 -10 -24 -5 3 -10 17 -10 31 0 13 5 24
10 24 6 0 10 -14 10 -31z m-1743 -41 c61 -41 215 -114 273 -129 27 -7 50 -16
50 -21 0 -10 -42 -31 -126 -61 l-71 -26 -31 32 c-37 40 -172 217 -172 226 0
13 13 21 24 14 6 -4 30 -19 53 -35z m2264 -12 c-32 -51 -117 -124 -159 -136
-20 -5 -89 -10 -154 -10 -110 0 -116 -1 -111 -19 4 -14 -11 -36 -54 -78 -40
-39 -63 -71 -71 -99 -17 -58 -15 -177 3 -221 23 -55 -6 -25 -39 41 -31 61 -38
155 -16 220 19 58 4 66 -20 12 -20 -43 -22 -61 -18 -140 l5 -91 -24 80 -23 80
4 -80 c3 -55 2 -73 -4 -57 -18 42 -29 140 -23 196 6 57 23 78 23 29 1 -58 17
3 24 87 6 73 13 109 42 199 3 9 15 0 34 -26 27 -37 70 -73 86 -73 3 0 -8 16
-25 35 -40 46 -39 52 2 21 47 -36 108 -48 238 -49 106 -1 120 1 170 26 30 14
70 42 88 61 42 43 51 40 22 -8z m-1541 -155 c-6 -36 -23 -90 -38 -120 -29 -62
-110 -149 -163 -176 -29 -14 -25 -9 24 35 104 94 141 167 157 312 6 51 14 104
18 118 12 44 14 -99 2 -169z m2213 -61 l17 -35 -5 45 c-4 39 -2 36 16 -25 12
-40 23 -119 27 -185 l7 -115 19 53 c10 29 21 95 26 145 5 64 8 77 9 42 1 -42
3 -47 13 -31 10 18 6 109 -7 152 -4 11 0 9 8 -6 28 -47 38 -130 27 -210 -8
-61 -22 -100 -76 -207 -77 -151 -87 -201 -59 -285 17 -53 64 -142 71 -135 2 2
-5 30 -16 62 -25 73 -26 108 -1 40 10 -27 31 -79 47 -115 21 -49 29 -85 32
-148 4 -74 1 -88 -22 -137 -27 -55 -76 -105 -101 -105 -8 0 -39 -11 -68 -24
-70 -31 -101 -78 -101 -152 0 -60 -10 -61 -27 -5 -26 89 18 152 134 190 35 12
74 32 86 45 56 59 43 180 -29 291 -70 108 -84 150 -84 250 0 81 3 98 34 169
27 63 35 75 42 60 7 -15 7 -13 3 6 -2 14 -5 35 -5 46 0 12 -18 44 -41 70 -53
64 -89 136 -88 176 l0 33 14 -38 c8 -21 30 -60 50 -87 41 -56 82 -93 45 -41
-29 42 -70 139 -69 166 0 13 5 7 14 -16 22 -59 52 -113 75 -134 l23 -20 -8 25
c-4 14 -18 45 -30 70 -53 105 -68 221 -42 318 l12 47 6 -105 c3 -68 11 -117
22 -140z m-3303 143 c0 -15 -43 -28 -66 -19 -10 4 -28 -6 -50 -28 l-35 -35
-15 25 c-15 22 -15 26 1 50 10 15 22 23 31 20 8 -3 20 -9 28 -12 8 -3 23 7 36
26 l22 31 24 -22 c13 -12 24 -28 24 -36z m989 26 c-12 -17 -44 -56 -70 -87
-27 -30 -49 -59 -49 -64 0 -15 89 53 127 97 l35 40 -24 -44 c-12 -24 -57 -75
-98 -114 -76 -70 -67 -73 33 -10 l38 24 -22 -43 -21 -43 26 24 c14 14 38 47
52 75 23 47 25 48 19 17 -32 -198 -295 -382 -523 -369 -43 3 -90 11 -105 20
-28 14 -26 15 80 26 60 7 142 21 182 32 76 21 165 62 176 81 4 6 -11 1 -33
-10 -44 -22 -183 -71 -203 -71 -7 0 15 17 47 38 77 50 121 102 197 231 62 105
123 181 146 181 8 0 4 -12 -10 -31z m1627 -57 c-29 -57 -77 -102 -110 -102
-37 0 -86 21 -86 36 0 8 10 14 23 14 35 0 121 45 158 82 19 19 35 31 37 27 2
-4 -8 -30 -22 -57z m69 -67 c4 -38 12 -79 18 -90 10 -19 12 -18 17 10 4 22 8
8 14 -51 5 -54 3 -104 -6 -150 l-13 -69 -6 90 c-5 81 -42 215 -55 202 -3 -2
-1 -49 3 -103 5 -71 9 -90 14 -69 5 25 7 21 8 -21 1 -55 -40 -154 -78 -188
-19 -17 -19 -16 1 35 38 98 25 211 -38 310 -17 28 -23 44 -15 47 26 9 69 54
92 96 28 54 34 47 44 -49z m-2585 -30 c78 -89 75 -78 29 -114 -39 -32 -41 -32
-60 -15 -25 22 -24 31 4 40 22 7 21 7 -5 16 -35 12 -36 31 -2 55 l26 19 -61
-1 c-34 0 -65 -5 -73 -12 -17 -18 -28 -16 -28 6 0 10 -9 21 -20 24 -21 5 -27
31 -10 42 5 3 19 1 31 -6 19 -10 26 -7 53 20 l31 32 25 -33 c14 -18 41 -51 60
-73z m4185 76 c-6 -5 -28 -11 -50 -14 l-40 -6 30 14 c34 16 75 20 60 6z
m-3462 -53 c-15 -26 -38 -41 -104 -70 -149 -65 -298 -110 -381 -115 -89 -7
-117 0 -98 22 33 40 -71 -3 -111 -46 -33 -35 -38 -28 -10 14 33 51 55 59 180
68 133 9 243 38 401 105 58 24 112 48 120 54 23 14 24 4 3 -32z m1081 -158 l6
-45 -14 37 c-15 38 -20 84 -15 158 2 37 3 31 9 -30 4 -41 10 -95 14 -120z
m2846 61 c16 -31 13 -31 -35 -4 -44 24 -51 33 -39 46 10 9 62 -21 74 -42z
m-2290 -38 c0 4 -7 22 -15 40 l-16 32 26 -30 c15 -16 35 -43 46 -60 l19 -30 0
30 c0 17 -4 45 -9 63 -18 60 11 31 54 -53 35 -69 40 -87 38 -140 -2 -92 -41
-165 -116 -216 -29 -20 -28 -18 9 22 41 44 74 97 74 120 0 7 -13 -6 -29 -28
-28 -39 -101 -98 -151 -122 -15 -8 -5 7 28 37 55 53 91 118 92 166 0 27 -2 26
-25 -20 -14 -28 -37 -62 -53 -77 l-28 -27 3 38 4 37 -36 -60 c-19 -33 -38 -70
-41 -82 -3 -13 -9 -23 -13 -23 -3 0 -21 27 -39 60 -33 61 -55 79 -44 38 5 -22
4 -22 -15 -5 -11 9 -22 15 -25 12 -12 -12 -38 79 -38 133 -1 54 -1 56 -15 32
-28 -50 -11 -126 51 -220 9 -14 -3 -5 -26 20 -98 103 -106 219 -24 327 14 18
34 38 46 44 23 13 21 7 -21 -51 l-25 -35 25 23 c34 30 42 28 35 -10 -5 -27 -2
-24 19 19 32 69 46 74 29 11 -7 -29 -12 -54 -9 -56 2 -2 16 15 32 39 l28 43 5
-45 6 -44 16 50 17 50 1 -55 c2 -63 17 -44 20 25 l2 40 13 -50 13 -50 1 60 1
60 30 -45 c16 -25 30 -41 30 -37z m-2439 12 c23 -30 45 -55 50 -55 4 0 2 -17
-5 -37 -7 -21 -17 -38 -22 -37 -15 1 -106 155 -100 170 10 27 36 13 77 -41z
m1621 23 c7 -13 23 -79 35 -148 l23 -125 -5 115 -4 115 40 -45 c80 -91 134
-184 173 -295 20 -61 62 -156 91 -212 93 -176 102 -243 32 -243 -52 1 -197 36
-213 52 -9 8 -22 46 -31 84 -9 38 -44 141 -78 229 -34 88 -68 184 -74 213 -11
51 -16 282 -6 282 2 0 10 -10 17 -22z m3034 -21 c29 -26 36 -40 36 -69 0 -49
-16 -74 -61 -97 -21 -11 -53 -32 -70 -47 -18 -14 -35 -24 -38 -20 -10 9 17 35
73 68 82 50 94 94 39 148 -59 57 -39 72 21 17z m-3916 14 c0 -18 -27 -30 -102
-45 -122 -25 -132 -17 -23 19 109 36 125 39 125 26z m2288 -65 c20 -104 15
-203 -13 -297 -42 -138 -95 -343 -95 -365 0 -48 -18 -55 -178 -71 -179 -18
-182 -17 -182 61 0 104 45 208 168 385 36 52 82 123 103 160 l39 66 0 -74 c0
-87 -33 -258 -61 -312 -18 -36 -78 -79 -110 -79 -15 0 -3 45 22 84 14 22 8 17
-21 -14 -77 -83 -113 -188 -75 -220 12 -10 30 -10 93 0 98 17 118 24 136 52 9
13 24 91 36 183 11 88 26 210 34 270 8 61 23 129 33 153 l18 43 -2 -108 c-2
-123 10 -91 22 60 4 48 11 87 15 87 3 0 12 -29 18 -64z m1548 21 c36 -31 28
-62 -11 -47 -15 6 -46 10 -70 10 -35 0 -52 -6 -76 -28 l-32 -29 -101 30 c-56
16 -102 30 -104 32 -1 1 28 0 65 -2 57 -4 82 0 158 25 110 37 136 39 171 9z
m-298 -148 c134 -50 222 -90 222 -100 0 -5 -24 1 -52 12 -29 12 -105 41 -168
66 -111 43 -173 74 -215 108 -11 9 9 1 45 -16 36 -18 111 -49 168 -70z m278
66 c17 -13 16 -14 -18 -8 -26 4 -46 0 -65 -11 l-28 -17 28 25 c32 29 55 32 83
11z m-3941 -4 c-10 -17 -114 -51 -182 -61 -78 -11 -109 -6 -145 23 l-27 22
142 1 c78 1 156 6 172 12 39 13 47 14 40 3z m-357 -31 c11 -18 10 -20 -20 -20
-18 0 -48 -4 -66 -9 -45 -13 -40 -6 16 23 58 31 54 30 70 6z m4246 -15 c-52
-45 -81 -46 -32 0 21 19 45 35 55 35 11 0 4 -11 -23 -35z m-714 -230 c121
-163 122 -165 85 -142 -54 33 -132 128 -178 216 -55 106 -71 154 -31 96 15
-22 71 -98 124 -170z m-2256 106 c-10 -12 -24 16 -23 47 l1 37 12 -40 c7 -22
11 -42 10 -44z m-539 12 c-40 -69 -89 -118 -180 -179 -44 -29 -96 -66 -115
-81 l-34 -28 30 55 c19 33 55 75 91 105 102 84 218 173 226 174 5 1 -3 -20
-18 -46z m2641 -322 c40 -117 45 -144 41 -194 -6 -69 -36 -123 -106 -192 -61
-59 -65 -53 -12 18 77 102 100 199 66 272 l-14 30 7 -30 c12 -55 6 -120 -16
-166 -23 -47 -108 -148 -97 -114 4 11 18 49 31 85 32 89 32 182 -1 275 -13 39
-24 84 -24 100 0 30 0 30 10 5 14 -34 70 -132 74 -128 2 2 -5 28 -15 58 -21
58 -26 177 -13 266 7 46 8 43 15 -50 6 -77 18 -129 54 -235z m-2606 115 c-8
-15 -44 -55 -80 -88 l-65 -61 45 23 c25 12 68 39 95 59 44 31 48 33 34 11 -24
-36 -116 -96 -177 -114 l-53 -15 18 23 c10 13 41 51 70 84 51 61 78 118 104
222 l14 55 5 -85 c4 -64 1 -92 -10 -114z m2200 122 c-16 -35 -35 -97 -41 -138
-15 -96 2 -161 67 -257 l46 -68 -37 35 c-27 25 -36 29 -30 15 18 -49 25 -102
18 -140 -7 -39 -7 -39 -15 30 -5 39 -10 88 -12 110 -2 22 -14 60 -27 85 -33
66 -37 176 -10 257 19 55 58 133 66 133 2 0 -9 -28 -25 -62z m-1824 -51 c-14
-39 -27 -83 -29 -97 -3 -17 -5 -14 -6 12 -1 38 50 191 57 170 2 -7 -8 -45 -22
-85z m-966 65 c-169 -78 -222 -104 -218 -107 2 -2 32 3 68 10 83 18 87 18 70
1 -8 -8 -64 -37 -125 -64 -60 -27 -183 -83 -271 -125 -89 -43 -165 -77 -168
-77 -4 0 5 23 21 51 59 110 169 171 508 285 135 45 175 54 115 26z m1128 -5
c2 -12 -3 -17 -17 -17 -15 0 -21 6 -21 21 0 25 33 22 38 -4z m505 -102 c46
-70 124 -240 143 -314 19 -78 13 -111 -21 -111 -34 0 -61 30 -76 82 -7 24 -39
113 -72 198 -33 85 -63 181 -66 212 l-7 57 33 -37 c18 -20 48 -59 66 -87z
m2015 58 c50 -53 52 -54 17 -11 l-37 48 41 -15 c51 -18 123 -59 145 -84 9 -10
37 -67 61 -126 92 -222 152 -309 295 -426 107 -87 125 -116 95 -149 -37 -40
-72 -27 -221 81 -76 56 -198 141 -269 189 -128 85 -163 115 -152 126 13 13
173 -87 417 -261 146 -104 169 -119 176 -112 10 10 -458 332 -553 381 -24 12
-33 23 -33 41 0 14 2 25 6 25 7 0 212 -128 251 -158 l32 -24 -64 148 c-36 82
-65 150 -65 153 0 2 -2 2 -5 -1 -7 -6 25 -96 63 -180 17 -38 29 -68 27 -68 -2
0 -32 20 -67 44 -35 23 -84 55 -110 70 l-48 28 0 71 c0 66 -21 147 -65 250
-13 31 8 18 63 -40z m-3368 10 c-1 -5 -20 -35 -43 -68 -42 -59 -44 -60 -192
-125 -206 -91 -345 -164 -345 -180 0 -4 15 -11 33 -18 50 -18 216 -119 268
-162 25 -21 56 -40 70 -42 19 -2 24 -9 24 -33 0 -32 -27 -47 -49 -25 -8 8 -7
10 6 5 12 -5 20 -1 24 9 9 23 0 30 -31 22 -33 -8 -33 -40 0 -62 52 -34 111 23
135 131 6 28 13 59 16 70 4 14 -8 6 -37 -23 -23 -24 -56 -50 -72 -58 -26 -14
-31 -14 -50 1 -78 57 -196 130 -253 157 l-66 31 38 24 c58 34 129 59 271 93
70 17 135 38 146 47 18 17 18 16 12 -12 -4 -17 -16 -45 -26 -62 -10 -18 -16
-33 -13 -33 3 0 33 25 66 54 53 48 218 147 218 131 0 -12 -43 -91 -67 -123
-13 -18 -39 -39 -56 -46 l-32 -14 37 -1 c85 -2 211 43 298 107 32 24 34 24 15
3 -82 -95 -333 -181 -494 -169 -68 5 -69 -5 -4 -34 33 -14 70 -20 134 -21 49
-1 89 -5 89 -8 0 -3 -14 -24 -31 -47 -17 -22 -45 -59 -61 -81 -23 -29 -32 -54
-36 -93 -6 -62 -29 -100 -72 -118 -42 -17 -73 -2 -165 81 -173 155 -387 258
-537 259 -40 0 -138 -16 -218 -35 -83 -21 345 204 580 305 108 46 441 168 463
169 4 1 7 -2 7 -6z m3630 -45 c0 -13 -23 -5 -28 10 -2 7 2 10 12 6 9 -3 16
-11 16 -16z m-2739 -9 c13 -25 3 -37 -31 -41 -20 -2 -26 2 -28 21 -6 41 39 56
59 20z m-1696 -92 c-64 -47 -107 -92 -142 -149 -34 -54 -38 -58 -50 -42 -7 10
-13 36 -13 59 0 53 22 74 125 120 92 40 124 45 80 12z m3961 -84 c47 -30 48
-31 35 -52 -12 -19 -67 15 -120 75 -58 66 -61 94 -4 44 25 -22 65 -52 89 -67z
m-539 65 c-3 -8 -6 -5 -6 6 -1 11 2 17 5 13 3 -3 4 -12 1 -19z m-1704 -9 c17
-28 1 -49 -37 -49 -40 0 -52 24 -27 53 17 21 50 19 64 -4z m871 -251 c13 -28
61 -41 134 -35 l67 5 -28 -20 c-83 -60 -188 -238 -297 -502 -58 -141 -96 -223
-120 -256 -8 -11 -9 48 -5 205 l5 220 -24 -120 c-31 -158 -33 -167 -35 -126
-2 63 -23 164 -31 151 -5 -7 -11 -70 -15 -139 -9 -188 -9 -187 -57 -105 -117
200 -185 366 -222 544 -14 69 -26 127 -26 130 0 3 49 2 110 -1 103 -5 112 -7
147 -35 21 -17 51 -50 68 -75 l29 -44 111 110 c99 98 115 118 141 183 l29 72
6 -72 c3 -40 9 -80 13 -90z m1393 95 c45 -29 98 -72 117 -94 79 -92 66 -228
-26 -275 l-33 -17 21 24 c40 46 36 50 -14 15 -60 -44 -69 -45 -32 -6 39 42 64
120 56 175 -9 58 -38 99 -115 161 -35 28 -68 59 -74 69 -11 21 -14 22 100 -52z
m-2240 41 c8 -20 -21 -44 -53 -44 -26 0 -39 27 -23 46 16 20 68 18 76 -2z
m1837 -149 c3 -22 2 -47 -4 -55 -7 -11 -10 -3 -10 30 0 25 -3 56 -6 70 -4 18
-3 21 4 10 5 -8 13 -33 16 -55z m-1797 28 c14 -20 12 -23 -36 -47 -49 -24 -51
-24 -61 -6 -14 27 -13 37 11 61 25 25 67 22 86 -8z m1331 -11 c3 -17 -2 -22
-17 -22 -14 0 -21 6 -21 18 0 38 33 41 38 4z m-2153 2 c-28 -21 -55 -36 -55
-29 0 6 62 45 70 45 3 -1 -4 -8 -15 -16z m656 -170 c5 -65 12 -135 15 -154 4
-23 0 -42 -10 -55 -16 -20 -16 -20 -31 -1 -11 15 -15 48 -15 133 0 99 15 211
26 200 3 -2 9 -57 15 -123z m1357 89 c-34 -38 -56 -72 -123 -188 -109 -189
-350 -537 -416 -600 l-62 -60 63 75 c64 75 138 185 304 452 155 250 170 272
205 310 18 21 38 38 44 38 6 0 -1 -12 -15 -27z m-1109 -72 c16 -32 41 -95 54
-142 44 -148 86 -240 183 -401 60 -98 134 -244 134 -263 0 -12 -97 -93 -136
-113 -28 -15 -50 9 -102 113 -53 107 -146 369 -133 373 6 2 11 10 11 18 0 7
-6 11 -14 8 -14 -6 -19 4 -31 63 -5 27 -2 37 20 59 14 14 28 24 31 22 4 -5 29
-146 38 -226 13 -100 26 -102 20 -2 -3 52 -7 106 -9 120 -3 19 0 17 11 -10 9
-19 29 -94 44 -166 16 -73 40 -154 54 -180 14 -27 25 -46 26 -43 0 3 -11 43
-25 89 -14 46 -25 97 -25 114 1 28 4 25 34 -34 29 -56 53 -129 73 -216 3 -14
-1 -23 -12 -28 -23 -8 -32 -1 -67 53 -19 30 -28 37 -23 21 12 -44 47 -111 61
-117 13 -5 90 43 114 72 12 14 9 27 -24 93 -21 42 -60 113 -86 157 -95 158
-174 335 -195 435 -4 19 -18 50 -32 68 -32 42 -56 101 -49 119 9 22 24 7 55
-56z m-819 55 c0 -2 -22 -21 -50 -41 -52 -38 -94 -88 -88 -105 2 -5 38 8 81
31 85 44 87 43 67 -36 l-8 -30 -1 33 c0 17 -3 32 -5 32 -7 0 -126 -72 -130
-79 -5 -8 30 -121 41 -131 4 -5 37 10 72 31 34 21 65 39 67 39 2 0 4 -15 4
-33 0 -31 -6 -38 -69 -79 l-70 -45 -29 81 c-57 155 -63 187 -41 227 15 28 159
123 159 105z m730 -16 c27 -27 25 -37 -12 -60 -45 -27 -66 -25 -74 7 -6 21 -2
31 20 50 33 28 41 28 66 3z m1375 -30 c4 -6 3 -35 -1 -66 -6 -49 -9 -55 -28
-52 -17 2 -22 11 -24 41 -5 54 33 109 53 77z m847 -14 c20 -9 39 -23 41 -30 3
-8 -11 -5 -36 8 -67 33 -191 33 -292 1 -20 -6 -20 -6 0 6 67 43 215 51 287 15z
m-246 -163 c-1 -38 3 -93 8 -123 l9 -55 -38 45 c-47 57 -49 59 -42 35 6 -19 6
-19 -6 -1 -21 34 -48 57 -60 53 -19 -6 -26 -54 -11 -76 11 -16 22 -19 44 -14
23 4 38 -1 65 -21 19 -15 35 -32 35 -37 0 -6 -18 -32 -41 -57 -34 -40 -101
-134 -146 -208 -10 -17 -13 -16 -28 21 -30 70 -104 163 -176 221 -38 31 -72
67 -75 80 -10 39 15 82 61 109 60 36 65 31 18 -17 -44 -45 -66 -88 -55 -105 7
-9 124 -66 126 -61 1 2 32 49 69 105 68 103 98 130 173 157 69 26 71 24 70
-51z m-1902 41 c37 -36 -3 -100 -57 -92 -17 2 -23 11 -25 40 -3 32 1 39 25 52
36 19 38 19 57 0z m1229 -41 c-2 -40 0 -52 6 -38 12 29 48 58 60 50 15 -9 14
-52 -1 -57 -8 -3 -11 -20 -10 -45 3 -36 -2 -47 -34 -83 l-37 -41 -18 28 c-24
36 -24 68 1 93 16 16 19 28 14 60 -7 40 1 90 14 90 4 0 6 -26 5 -57z m1277
-48 l23 -24 19 22 c11 12 17 15 15 7 -28 -88 -43 -130 -50 -130 -4 0 -4 24 -1
53 6 50 5 55 -21 75 -15 12 -23 22 -18 22 5 0 20 -11 33 -25z m-710 -51 c0
-16 -16 -19 -25 -4 -8 13 4 32 16 25 5 -4 9 -13 9 -21z m-1904 -39 c2 -73 105
-388 174 -533 60 -125 62 -161 3 -61 -18 30 -39 64 -48 76 -19 27 -60 30 -93
7 -30 -21 -44 -14 -60 30 -13 35 -12 37 17 66 34 35 46 79 37 146 -6 52 -45
178 -53 170 -4 -4 16 -85 34 -133 6 -17 5 -17 -13 -2 -35 30 -62 32 -110 8
-53 -25 -84 -69 -84 -117 0 -51 -23 -35 -38 27 -11 45 -11 60 2 105 19 63 80
161 125 199 l33 28 34 -20 c19 -11 34 -16 34 -11 0 5 -10 15 -22 21 -30 16
-29 14 -22 33 4 10 15 16 28 14 18 -3 21 -10 22 -53z m2579 -2 c14 -21 25 -46
25 -57 0 -18 -1 -18 -20 -1 -11 10 -22 26 -25 36 -4 11 -10 17 -14 14 -5 -2
-6 7 -3 20 2 14 6 25 8 25 2 0 15 -17 29 -37z m-3576 -2 c18 -12 5 -31 -20
-31 -19 0 -87 -41 -149 -89 -18 -15 -21 -22 -13 -33 6 -7 36 -59 66 -115 53
-98 57 -123 22 -123 -11 0 -95 139 -95 157 0 5 -6 18 -14 28 -12 17 -16 17
-30 6 -21 -18 -30 -8 -22 24 8 33 74 97 150 147 60 39 80 44 105 29z m3327
-21 c54 -26 158 -120 180 -162 30 -58 8 -135 -62 -217 -42 -49 -58 -48 -21 1
38 50 77 133 77 164 0 57 -209 224 -280 224 -30 0 -65 -36 -83 -88 -25 -69
-18 -86 51 -111 31 -12 86 -44 121 -71 60 -46 90 -62 77 -41 -3 5 9 34 28 65
32 54 34 55 51 36 14 -16 15 -24 6 -52 -13 -39 -67 -108 -84 -108 -7 0 -45 27
-85 59 -40 32 -98 71 -130 87 -53 27 -57 32 -60 69 -5 53 15 119 45 151 21 23
30 26 72 22 26 -3 70 -15 97 -28z m238 -64 c9 -14 16 -38 16 -53 0 -27 -2 -26
-25 15 -14 24 -35 58 -47 75 l-23 32 31 -22 c17 -13 39 -34 48 -47z m-316 15
c11 -6 7 -21 -17 -69 -26 -51 -34 -59 -52 -55 -29 8 -33 25 -14 69 26 63 48
77 83 55z m-3688 -8 c0 -10 -49 -93 -77 -131 -48 -64 -10 -46 58 28 l69 75 0
-39 c0 -68 -66 -146 -124 -146 -35 0 -76 28 -76 51 0 20 72 135 99 157 16 13
51 17 51 5z m515 -89 c27 -50 57 -99 65 -108 12 -16 12 -19 0 -27 -8 -4 -71
-49 -140 -98 -69 -50 -128 -91 -131 -91 -6 0 -80 147 -105 211 -14 35 -15 42
-3 50 22 14 25 11 43 -35 10 -25 35 -72 57 -106 36 -57 41 -61 59 -48 10 7 58
40 107 72 111 75 110 74 72 68 -22 -3 -30 -1 -25 7 4 6 -15 54 -42 106 -45 87
-47 96 -28 93 15 -2 35 -29 71 -94z m3641 28 c-22 -84 -20 -111 14 -184 29
-61 36 -88 24 -88 -4 0 -24 10 -46 22 -43 24 -68 62 -68 101 0 45 73 227 86
214 3 -3 -2 -32 -10 -65z m-3683 -168 c-79 -62 -104 -63 -106 -8 -1 16 -6 33
-12 37 -6 5 3 18 23 36 41 35 41 46 0 25 -30 -15 -32 -15 -45 2 -7 10 -13 24
-13 31 0 7 -4 13 -10 13 -24 0 -7 32 32 60 l42 31 54 -106 c50 -101 52 -108
35 -121z m2304 205 c17 -14 17 -58 0 -65 -21 -8 -92 22 -95 40 -6 29 18 48 51
42 17 -3 36 -11 44 -17z m961 2 c10 -6 6 -20 -20 -64 -25 -41 -38 -53 -48 -47
-11 7 -8 19 16 64 31 59 32 60 52 47z m86 -59 c4 -6 -42 -91 -60 -111 -1 -2
-16 6 -33 18 l-30 22 32 58 32 59 27 -20 c15 -10 29 -22 32 -26z m39 -28 c7
-7 -44 -114 -54 -114 -4 0 -11 6 -17 13 -8 9 -3 25 20 60 30 46 39 53 51 41z
m-718 -29 c17 -13 26 -24 20 -24 -5 0 -23 11 -40 24 -16 14 -25 25 -20 25 6 0
24 -11 40 -25z m-401 -26 c50 -40 24 -90 -37 -70 -19 7 -41 10 -48 9 -18 -4
-23 35 -9 61 14 27 59 27 94 0z m-1411 -20 c-26 -44 -43 -57 -43 -31 0 11 12
30 26 41 36 28 38 26 17 -10z m83 -11 c8 -13 -38 -53 -78 -67 -16 -6 -28 -8
-28 -5 0 7 84 84 92 84 4 0 10 -5 14 -12z m2283 -97 c60 -41 77 -58 68 -68 -8
-8 -207 119 -201 129 7 11 64 -14 133 -61z m-3583 35 c3 -8 1 -23 -5 -33 -6
-12 -6 -34 -1 -59 11 -46 -6 -80 -45 -90 -37 -9 -77 20 -73 54 3 23 7 27 34
26 31 -2 32 -1 27 36 -3 20 0 47 6 59 13 24 49 28 57 7z m2602 -18 c35 -35
-14 -143 -62 -136 -37 5 -34 90 4 128 23 23 41 25 58 8z m-1342 -24 c-11 -8
-27 -14 -35 -14 -10 0 -4 8 14 20 33 21 51 17 21 -6z m2664 -89 c28 -14 50
-27 50 -30 0 -2 -8 -18 -18 -34 l-18 -30 -42 19 c-24 11 -52 26 -62 33 -20 14
-20 14 1 41 25 32 28 32 89 1z m-1375 -79 c39 -17 46 -43 17 -69 -14 -13 -25
-14 -59 -6 -49 13 -62 40 -32 70 23 23 29 23 74 5z m-2497 -8 c28 -28 1 -75
-38 -63 -22 7 -27 44 -8 63 15 15 31 15 46 0z m1352 -54 c0 -23 -3 -25 -22
-19 -13 3 -29 7 -37 7 -9 1 -7 7 9 20 32 26 50 23 50 -8z"/>
<path d="M3510 4218 c-15 -21 -17 -28 -6 -19 16 13 41 51 33 51 -2 0 -14 -15
-27 -32z"/>
<path d="M2681 4236 c-13 -13 -21 -32 -19 -43 3 -15 13 -18 63 -18 57 0 125
19 125 34 0 4 -17 17 -39 29 -52 30 -101 29 -130 -2z"/>
<path d="M2870 4167 c-25 -13 -30 -45 -15 -86 6 -14 8 -14 17 2 9 18 10 18 24
0 13 -17 15 -17 39 10 30 34 31 41 5 67 -23 23 -36 24 -70 7z"/>
<path d="M2777 4120 c-37 -30 -34 -40 14 -40 38 0 40 2 37 27 -4 35 -19 38
-51 13z"/>
<path d="M4460 3864 c0 -7 9 -22 21 -35 16 -19 18 -20 10 -4 -17 34 -31 51
-31 39z"/>
<path d="M3142 3470 c-52 -21 -212 -143 -202 -154 3 -3 40 21 83 54 105 81
132 94 201 94 54 1 60 -1 88 -34 23 -27 27 -29 18 -10 -22 44 -50 60 -110 59
-30 0 -65 -4 -78 -9z"/>
<path d="M2121 3427 c22 -18 262 -118 276 -115 24 5 -81 60 -181 93 -66 22
-107 32 -95 22z"/>
<path d="M2544 3376 c14 -21 26 -49 26 -62 0 -31 -45 -64 -89 -64 -27 0 -32
-3 -21 -10 39 -25 103 0 121 46 11 30 -8 80 -41 109 -21 18 -20 17 4 -19z"/>
<path d="M2851 3354 c-45 -57 -5 -132 63 -119 39 8 130 62 159 94 21 24 20 23
-28 -4 -121 -69 -145 -79 -173 -69 -36 12 -41 56 -13 95 27 36 20 38 -8 3z"/>
<path d="M3441 3204 c-12 -20 -20 -39 -17 -41 5 -5 46 57 46 70 0 15 -8 6 -29
-29z"/>
<path d="M3246 2901 c17 -10 43 -34 57 -52 15 -19 27 -28 27 -20 0 20 -75 91
-96 91 -14 0 -11 -5 12 -19z"/>
<path d="M1452 2364 c-29 -30 -50 -54 -46 -54 16 0 75 53 89 81 9 16 14 28 13
28 -2 -1 -27 -26 -56 -55z"/>
<path d="M3730 2843 c0 -5 12 -20 28 -34 l27 -24 -25 30 c-14 17 -26 32 -27
34 -2 2 -3 0 -3 -6z"/>
<path d="M3824 2430 c3 -14 12 -62 21 -108 17 -86 63 -230 64 -199 1 26 -70
310 -81 322 -6 6 -7 1 -4 -15z"/>
<path d="M1642 2050 c0 -14 2 -19 5 -12 2 6 2 18 0 25 -3 6 -5 1 -5 -13z"/>
<path d="M1608 1848 c-68 -93 -97 -239 -64 -329 7 -19 45 -83 85 -141 85 -122
96 -166 62 -231 -13 -27 -15 -34 -5 -26 24 20 44 65 44 99 0 40 -32 103 -85
165 -85 100 -95 121 -95 196 0 91 14 152 54 232 19 37 33 67 31 67 -1 0 -13
-15 -27 -32z"/>
<path d="M2270 2425 c-7 -9 -10 -18 -7 -21 3 -3 10 4 17 15 13 25 8 27 -10 6z"/>
<path d="M1795 2469 c-11 -17 -2 -18 19 -3 17 12 17 14 4 14 -9 0 -20 -5 -23
-11z"/>
<path d="M1803 2419 c14 -8 22 -8 30 0 8 8 3 11 -18 11 -26 -1 -28 -2 -12 -11z"/>
<path d="M3515 2464 c-18 -18 -16 -33 7 -47 21 -14 48 -2 48 22 0 30 -34 45
-55 25z m35 -14 c11 -7 12 -12 3 -21 -13 -13 -33 -4 -33 17 0 16 9 18 30 4z"/>
<path d="M2398 2124 c13 -24 40 -49 47 -42 3 2 -9 18 -26 34 -24 22 -29 24
-21 8z"/>
<path d="M2602 1780 c0 -19 2 -27 5 -17 2 9 2 25 0 35 -3 9 -5 1 -5 -18z"/>
<path d="M349 1200 c-30 -15 -61 -36 -69 -45 -7 -8 19 3 58 25 40 23 72 44 72
46 0 6 1 6 -61 -26z"/>
<path d="M580 1082 c25 -14 87 -54 138 -89 96 -64 122 -65 38 -2 -48 36 -196
119 -212 119 -5 -1 11 -13 36 -28z"/>
<path d="M3822 678 c-6 -6 -12 -21 -12 -31 0 -16 3 -17 15 -7 16 14 35 6 35
-16 0 -8 -9 -14 -20 -14 -23 0 -26 -22 -6 -39 29 -24 72 18 47 45 -5 5 -11 22
-13 39 -3 32 -26 43 -46 23z"/>
<path d="M3940 646 c0 -2 9 -6 20 -9 11 -3 18 -1 14 4 -5 9 -34 13 -34 5z"/>
<path d="M3774 589 c-10 -17 13 -36 27 -22 12 12 4 33 -11 33 -5 0 -12 -5 -16
-11z"/>
<path d="M3872 523 c2 -10 10 -18 18 -18 22 0 18 29 -3 33 -14 3 -18 -1 -15
-15z"/>
<path d="M2370 5115 c0 -22 55 -102 146 -212 152 -183 177 -205 68 -58 -28 39
-75 99 -103 135 -28 36 -51 73 -51 83 0 9 15 26 33 37 l32 20 -62 0 c-35 0
-63 -2 -63 -5z"/>
<path d="M2525 5108 c-11 -6 -30 -20 -42 -31 -20 -18 -21 -22 -8 -47 24 -46
40 -53 136 -56 50 -1 93 -4 95 -7 3 -3 0 -15 -6 -27 -10 -20 -10 -21 8 -11 11
6 33 26 51 46 24 28 31 45 31 78 0 24 -5 48 -12 55 -15 15 -225 16 -253 0z"/>
<path d="M2790 5110 c0 -5 5 -10 10 -10 6 0 10 5 10 10 0 6 -4 10 -10 10 -5 0
-10 -4 -10 -10z"/>
<path d="M2843 5008 c9 -204 62 -278 195 -278 96 0 232 103 248 187 9 46 -9
122 -38 168 -23 34 -24 35 -94 35 l-71 0 -1 -31 c-1 -39 -30 -71 -100 -111
-29 -16 -60 -41 -69 -54 -9 -14 -18 -22 -21 -20 -11 11 31 57 87 95 63 43 77
68 54 100 -12 19 -25 21 -105 21 l-91 0 6 -112z"/>
<path d="M3279 5078 c16 -24 31 -52 33 -63 3 -16 10 -11 36 30 45 71 43 75
-33 75 l-64 0 28 -42z"/>
<path d="M3402 5082 c-19 -64 -102 -225 -139 -270 -39 -48 -123 -107 -165
-118 -54 -12 -27 -24 57 -24 129 0 167 26 184 125 5 33 30 118 55 188 25 70
46 130 46 132 0 3 -6 5 -13 5 -8 0 -19 -17 -25 -38z"/>
<path d="M4570 5094 c-33 -87 32 -171 155 -199 l30 -6 -37 38 c-33 34 -68 97
-68 122 0 5 12 23 26 40 l26 31 -61 0 c-57 0 -62 -2 -71 -26z"/>
<path d="M3490 4892 c-179 -285 -504 -475 -671 -392 -25 13 -89 68 -148 129
-102 104 -103 105 -61 43 60 -86 137 -165 190 -193 85 -45 231 -23 354 52 132
81 246 183 308 272 40 59 93 165 86 172 -2 2 -28 -35 -58 -83z"/>
<path d="M2710 4646 c29 -32 117 -96 104 -75 -11 18 -59 59 -98 83 l-31 20 25
-28z"/>
<path d="M5019 4567 c-45 -30 -79 -83 -78 -121 l1 -31 7 30 c17 69 58 111 127
130 49 13 49 13 13 14 -22 1 -49 -8 -70 -22z"/>
<path d="M596 4310 c-32 -10 -63 -35 -78 -64 -9 -17 -6 -17 28 5 66 40 150 29
243 -32 32 -21 33 -22 23 -3 -20 37 -76 84 -111 94 -42 12 -65 11 -105 0z"/>
<path d="M330 4075 c0 -8 7 -15 15 -15 8 0 15 7 15 15 0 8 -7 15 -15 15 -8 0
-15 -7 -15 -15z"/>
<path d="M430 4060 c0 -5 5 -10 10 -10 6 0 10 5 10 10 0 6 -4 10 -10 10 -5 0
-10 -4 -10 -10z"/>
<path d="M526 3947 c-25 -18 -13 -52 24 -67 20 -8 31 -21 35 -43 8 -38 31 -77
46 -77 5 0 3 10 -5 22 -10 14 -16 44 -16 76 0 43 -5 58 -25 77 -28 29 -34 30
-59 12z"/>
<path d="M254 3716 c-35 -35 -44 -72 -22 -94 18 -18 46 -14 58 8 15 27 56 26
74 -3 10 -14 15 -42 13 -74 -2 -42 2 -56 22 -77 31 -33 70 -33 139 -1 62 29
101 31 147 9 32 -15 58 -55 67 -99 3 -18 10 -20 75 -17 55 3 81 -1 118 -17 61
-27 64 -26 34 5 -29 32 -94 63 -130 64 -19 0 -29 9 -42 35 -9 19 -23 35 -30
35 -8 0 -31 14 -52 30 -46 37 -104 40 -170 10 -78 -36 -115 -11 -115 75 0 123
-109 188 -186 111z"/>
<path d="M753 3614 c-7 -19 11 -39 26 -30 16 10 13 33 -4 40 -9 3 -18 -1 -22
-10z"/>
<path d="M4214 3595 c-8 -20 4 -35 26 -35 23 0 32 13 24 34 -8 20 -43 21 -50
1z"/>
<path d="M4088 3569 c-36 -21 -16 -79 27 -79 44 0 63 60 26 80 -24 12 -31 12
-53 -1z"/>
<path d="M4394 3415 c-11 -8 -42 -14 -75 -15 -62 0 -72 -7 -99 -68 -13 -29
-24 -37 -70 -51 -34 -10 -55 -22 -55 -31 0 -10 7 -14 20 -11 11 2 61 5 112 5
l92 1 38 37 c30 30 49 39 88 44 28 4 56 11 63 17 20 16 14 44 -14 66 -31 25
-72 27 -100 6z"/>
<path d="M1106 3358 c-8 -31 -7 -71 2 -85 4 -6 7 15 7 48 0 32 0 59 -1 59 -1
0 -4 -10 -8 -22z"/>
<path d="M4520 3250 c0 -24 29 -38 40 -20 12 19 1 40 -21 40 -12 0 -19 -7 -19
-20z"/>
<path d="M0 2976 c0 -10 14 -44 32 -75 38 -67 150 -231 158 -231 3 0 16 9 30
20 l25 20 -32 0 c-37 0 -68 38 -158 191 -30 52 -55 86 -55 75z"/>
<path d="M2924 379 c-3 -5 6 -9 20 -9 31 0 34 6 6 13 -11 3 -23 1 -26 -4z"/>
<path d="M3711 337 c-9 -11 -8 -17 4 -27 12 -10 16 -9 21 5 9 23 -10 40 -25
22z"/>
<path d="M0 286 c0 -15 13 -64 29 -109 29 -84 44 -147 36 -147 -3 0 -18 28
-34 63 l-29 62 -1 -46 c-1 -26 2 -61 5 -78 l6 -31 89 0 c49 0 89 2 89 5 0 4
-178 295 -186 304 -2 2 -4 -8 -4 -23z"/>
<path d="M3564 286 c-8 -22 3 -33 18 -18 9 9 9 15 0 24 -9 9 -13 7 -18 -6z"/>
<path d="M3616 291 c-7 -11 18 -33 27 -24 4 3 7 12 7 20 0 15 -26 18 -34 4z"/>
<path d="M3606 212 c-8 -13 11 -35 23 -28 16 10 14 36 -3 36 -8 0 -17 -4 -20
-8z"/>
<path d="M3521 186 c-12 -14 -5 -26 16 -26 15 0 18 26 4 34 -5 3 -14 0 -20 -8z"/>
<path d="M4228 142 c-40 -60 -79 -142 -68 -142 5 0 30 41 55 90 25 50 44 90
41 90 -2 0 -15 -17 -28 -38z"/>
<path d="M4101 76 c-17 -38 -29 -71 -27 -73 8 -8 68 118 63 130 -3 7 -19 -19
-36 -57z"/>
<path d="M4157 102 c-19 -21 -22 -32 -7 -32 10 0 34 39 27 46 -2 2 -11 -4 -20
-14z"/>
</g>
</svg>